<?xml version="1.0" encoding="UTF-8" standalone="no"?><!DOCTYPE svg PUBLIC "-//W3C//DTD SVG 1.1//EN" "http://www.w3.org/Graphics/SVG/1.1/DTD/svg11.dtd">
<svg width="100%" height="100%" viewBox="0 0 4437 415" version="1.1"
    xmlns="http://www.w3.org/2000/svg"
    xmlns:xlink="http://www.w3.org/1999/xlink" xml:space="preserve"
    xmlns:serif="http://www.serif.com/" style="fill-rule:evenodd;clip-rule:evenodd;stroke-linejoin:round;stroke-miterlimit:2;">
    <defs>
        <filter id="dropShadow" x="0" y="0" width="110%" height="110%">
            <feDropShadow dx="1" dy="1" stdDeviation="0.025" floodOpacity="0.3"/>
        </filter>
    </defs>
    <path filter="url(#dropShadow)" d="M425.788,284.056c0,86.614 -55.512,129.921 -166.536,129.921l-243.307,0c-4.331,0 -8.071,-1.575 -11.221,-4.724c-3.149,-3.15 -4.724,-6.89 -4.724,-11.221l0,-381.497c0,-4.33 1.575,-8.07 4.724,-11.22c3.15,-3.15 6.89,-4.724 11.221,-4.724l237.402,-0c55.905,-0 97.146,10.137 123.721,30.413c26.574,20.276 39.862,50.886 39.862,91.831l-0,1.771c-0,18.898 -5.118,35.04 -15.355,48.426c-10.236,13.386 -20.866,21.85 -31.889,25.394c15.354,4.724 28.543,15.059 39.567,31.003c11.023,15.945 16.535,34.154 16.535,54.627Zm-272.244,-29.528l-0,57.874l85.63,0c9.055,0 15.846,-3.051 20.374,-9.154c4.527,-6.102 6.791,-12.893 6.791,-20.374l-0,-0.59c-0,-7.48 -2.461,-13.977 -7.382,-19.488c-4.921,-5.512 -11.516,-8.268 -19.783,-8.268l-85.63,-0Zm97.145,-107.185c4.134,-5.709 6.201,-12.107 6.201,-19.193c0,-7.087 -2.067,-13.189 -6.201,-18.307c-4.134,-5.118 -10.137,-7.677 -18.011,-7.677l-79.134,-0l-0,53.74l79.134,-0c7.874,-0 13.877,-2.855 18.011,-8.563Z" style="fill:#fff;fill-rule:nonzero;"/>
    <path filter="url(#dropShadow)" d="M1391.93,121.654l-106.89,-0l0,171.26l106.89,-0c4.331,-0 8.071,1.575 11.221,4.724c3.149,3.15 4.724,6.89 4.724,11.221l0,89.173c0,4.331 -1.575,8.071 -4.724,11.221c-3.15,3.149 -6.89,4.724 -11.221,4.724l-374.41,0c-4.33,0 -8.071,-1.575 -11.22,-4.724c-3.15,-3.15 -4.725,-6.89 -4.725,-11.221l0,-89.173c0,-4.331 1.575,-8.071 4.725,-11.221c3.149,-3.149 6.89,-4.724 11.22,-4.724l108.071,-0l0,-171.26l-108.071,-0c-4.33,-0 -8.071,-1.575 -11.22,-4.725c-3.15,-3.149 -4.725,-6.889 -4.725,-11.22l0,-89.174c0,-4.33 1.575,-8.07 4.725,-11.22c3.149,-3.15 6.89,-4.724 11.22,-4.724l374.41,-0c4.331,-0 8.071,1.574 11.221,4.724c3.149,3.15 4.724,6.89 4.724,11.22l0,89.174c0,4.331 -1.575,8.071 -4.724,11.22c-3.15,3.15 -6.89,4.725 -11.221,4.725Z" style="fill:#fff;fill-rule:nonzero;"/>
    <path filter="url(#dropShadow)" d="M2283.66,0.591l109.843,-0c4.33,-0 8.07,1.574 11.22,4.724c3.15,3.15 4.725,6.89 4.725,11.22l-0,381.497c-0,4.331 -1.575,8.071 -4.725,11.221c-3.15,3.149 -6.89,4.724 -11.22,4.724l-95.079,0c-9.449,0 -17.323,-4.134 -23.622,-12.402l-128.741,-164.173l0,160.63c0,4.331 -1.575,8.071 -4.724,11.221c-3.15,3.149 -6.89,4.724 -11.221,4.724l-109.842,0c-4.331,0 -8.071,-1.575 -11.221,-4.724c-3.149,-3.15 -4.724,-6.89 -4.724,-11.221l-0,-381.497c-0,-4.33 1.575,-8.07 4.724,-11.22c3.15,-3.15 6.89,-4.724 11.221,-4.724l95.669,-0c9.449,-0 17.126,3.937 23.032,11.811l128.74,177.756l0,-173.623c0,-4.33 1.575,-8.07 4.724,-11.22c3.15,-3.15 6.89,-4.724 11.221,-4.724Z" style="fill:#fff;fill-rule:nonzero;"/>
    <path filter="url(#dropShadow)" d="M3253.94,159.449l171.26,0c4.331,0 8.071,1.575 11.221,4.724c3.149,3.15 4.724,6.89 4.724,11.221l-0,62.598c-0,59.843 -20.374,104.233 -61.122,133.17c-40.748,28.937 -94.587,43.406 -161.516,43.406c-66.929,-0 -120.768,-14.108 -161.516,-42.322c-40.748,-28.214 -61.122,-71.876 -61.122,-130.987l-0,-67.95c-0,-29.553 5.807,-55.654 17.421,-78.304c11.614,-22.65 27.854,-40.883 48.721,-54.7c40.945,-26.87 93.11,-40.305 156.496,-40.305c31.496,0 60.335,3.497 86.516,10.492c26.181,6.994 47.047,15.691 62.598,26.09c15.551,10.399 28.839,21.649 39.863,33.749c19.291,21.174 28.937,39.893 28.937,56.158c-0,3.402 -1.28,6.331 -3.839,8.789c-2.559,2.458 -5.61,3.686 -9.154,3.686l-133.464,0c-7.874,0 -13.583,-1.747 -17.126,-5.241c-12.205,-12.377 -28.839,-18.565 -49.902,-18.565c-21.063,-0 -37.598,3.907 -49.606,11.723c-12.008,7.816 -18.012,17.866 -18.012,30.15l-0,94.923c-0,14.886 5.905,26.517 17.716,34.893c11.811,8.375 28.445,12.563 49.902,12.563c21.457,-0 37.992,-4.232 49.606,-12.697c11.615,-8.465 17.619,-18.406 18.012,-29.823l-36.614,0c-4.331,0 -8.071,-1.575 -11.221,-4.724c-3.149,-3.15 -4.724,-6.89 -4.724,-11.221l0,-65.551c0,-4.331 1.575,-8.071 4.724,-11.221c3.15,-3.149 6.89,-4.724 11.221,-4.724Z" style="fill:#fff;fill-rule:nonzero;"/>
    <path filter="url(#dropShadow)" d="M4436.23,172.164l0,70.239c0,39.543 -9.842,72.557 -29.527,99.042c-19.685,26.486 -45.473,45.294 -77.363,56.426c-31.889,11.131 -69.488,16.697 -112.795,16.697c-43.307,-0 -80.906,-5.566 -112.796,-16.697c-31.889,-11.132 -57.677,-29.94 -77.362,-56.426c-19.685,-26.485 -29.527,-59.881 -29.527,-100.186l-0,-67.95c-0,-57.961 20.374,-101.335 61.122,-130.125c40.748,-28.789 93.602,-43.184 158.563,-43.184c64.961,0 117.815,14.395 158.563,43.184c40.748,28.79 61.122,71.783 61.122,128.98Zm-279.921,-9.55l-0,89.34c-0,15.262 5.413,26.987 16.24,35.174c10.827,8.188 25.492,12.282 43.996,12.282c18.504,-0 33.169,-4.188 43.996,-12.563c10.827,-8.376 16.24,-20.194 16.24,-35.456l0,-88.214c0,-15.262 -5.413,-27.081 -16.24,-35.456c-10.827,-8.376 -25.492,-12.563 -43.996,-12.563c-18.504,-0 -33.169,4.094 -43.996,12.281c-10.827,8.188 -16.24,19.913 -16.24,35.175Z" style="fill:#fff;fill-rule:nonzero;"/>
</svg>