<?xml version="1.0" encoding="UTF-8" standalone="no"?><!DOCTYPE svg PUBLIC "-//W3C//DTD SVG 1.1//EN" "http://www.w3.org/Graphics/SVG/1.1/DTD/svg11.dtd"><svg width="100%" height="100%" viewBox="0 0 400 50" version="1.1" xmlns="http://www.w3.org/2000/svg" xmlns:xlink="http://www.w3.org/1999/xlink" xml:space="preserve" xmlns:serif="http://www.serif.com/" style="fill-rule:evenodd;clip-rule:evenodd;stroke-linejoin:round;stroke-miterlimit:2;"><path d="M55.088,31.198c-0,7.04 -4.512,10.56 -13.536,10.56l-19.776,-0c-0.352,-0 -0.656,-0.128 -0.912,-0.384c-0.256,-0.256 -0.384,-0.56 -0.384,-0.912l-0,-31.008c-0,-0.352 0.128,-0.656 0.384,-0.912c0.256,-0.256 0.56,-0.384 0.912,-0.384l19.296,-0c4.544,-0 7.896,0.824 10.056,2.472c2.16,1.648 3.24,4.136 3.24,7.464l-0,0.144c-0,1.536 -0.416,2.848 -1.248,3.936c-0.832,1.088 -1.696,1.776 -2.592,2.064c1.248,0.384 2.32,1.224 3.216,2.52c0.896,1.296 1.344,2.776 1.344,4.44Zm-22.128,-2.4l-0,4.704l6.96,-0c0.736,-0 1.288,-0.248 1.656,-0.744c0.368,-0.496 0.552,-1.048 0.552,-1.656l-0,-0.048c-0,-0.608 -0.2,-1.136 -0.6,-1.584c-0.4,-0.448 -0.936,-0.672 -1.608,-0.672l-6.96,-0Zm7.896,-8.712c0.336,-0.464 0.504,-0.984 0.504,-1.56c-0,-0.576 -0.168,-1.072 -0.504,-1.488c-0.336,-0.416 -0.824,-0.624 -1.464,-0.624l-6.432,-0l-0,4.368l6.432,-0c0.64,-0 1.128,-0.232 1.464,-0.696Z" style="fill:#fff;fill-rule:nonzero;"/><path d="M133.616,17.998l-8.688,-0l-0,13.92l8.688,-0c0.352,-0 0.656,0.128 0.912,0.384c0.256,0.256 0.384,0.56 0.384,0.912l0,7.248c0,0.352 -0.128,0.656 -0.384,0.912c-0.256,0.256 -0.56,0.384 -0.912,0.384l-30.432,-0c-0.352,-0 -0.656,-0.128 -0.912,-0.384c-0.256,-0.256 -0.384,-0.56 -0.384,-0.912l0,-7.248c0,-0.352 0.128,-0.656 0.384,-0.912c0.256,-0.256 0.56,-0.384 0.912,-0.384l8.784,-0l-0,-13.92l-8.784,-0c-0.352,-0 -0.656,-0.128 -0.912,-0.384c-0.256,-0.256 -0.384,-0.56 -0.384,-0.912l0,-7.248c0,-0.352 0.128,-0.656 0.384,-0.912c0.256,-0.256 0.56,-0.384 0.912,-0.384l30.432,-0c0.352,-0 0.656,0.128 0.912,0.384c0.256,0.256 0.384,0.56 0.384,0.912l0,7.248c0,0.352 -0.128,0.656 -0.384,0.912c-0.256,0.256 -0.56,0.384 -0.912,0.384Z" style="fill:#fff;fill-rule:nonzero;"/><path d="M206.096,8.158l8.928,-0c0.352,-0 0.656,0.128 0.912,0.384c0.256,0.256 0.384,0.56 0.384,0.912l0,31.008c0,0.352 -0.128,0.656 -0.384,0.912c-0.256,0.256 -0.56,0.384 -0.912,0.384l-7.728,-0c-0.768,-0 -1.408,-0.336 -1.92,-1.008l-10.464,-13.344l0,13.056c0,0.352 -0.128,0.656 -0.384,0.912c-0.256,0.256 -0.56,0.384 -0.912,0.384l-8.928,-0c-0.352,-0 -0.656,-0.128 -0.912,-0.384c-0.256,-0.256 -0.384,-0.56 -0.384,-0.912l0,-31.008c0,-0.352 0.128,-0.656 0.384,-0.912c0.256,-0.256 0.56,-0.384 0.912,-0.384l7.776,-0c0.768,-0 1.392,0.32 1.872,0.96l10.464,14.448l-0,-14.112c-0,-0.352 0.128,-0.656 0.384,-0.912c0.256,-0.256 0.56,-0.384 0.912,-0.384Z" style="fill:#fff;fill-rule:nonzero;"/><path d="M284.96,21.07l13.92,-0c0.352,-0 0.656,0.128 0.912,0.384c0.256,0.256 0.384,0.56 0.384,0.912l-0,5.088c-0,4.864 -1.656,8.472 -4.968,10.824c-3.312,2.352 -7.688,3.528 -13.128,3.528c-5.44,-0 -9.816,-1.147 -13.128,-3.44c-3.312,-2.293 -4.968,-5.842 -4.968,-10.647l-0,-5.523c-0,-2.402 0.472,-4.523 1.416,-6.364c0.944,-1.841 2.264,-3.323 3.96,-4.446c3.328,-2.184 7.568,-3.276 12.72,-3.276c2.56,-0 4.904,0.284 7.032,0.853c2.128,0.568 3.824,1.275 5.088,2.12c1.264,0.846 2.344,1.76 3.24,2.743c1.568,1.721 2.352,3.243 2.352,4.565c-0,0.276 -0.104,0.515 -0.312,0.714c-0.208,0.2 -0.456,0.3 -0.744,0.3l-10.848,-0c-0.64,-0 -1.104,-0.142 -1.392,-0.426c-0.992,-1.006 -2.344,-1.509 -4.056,-1.509c-1.712,-0 -3.056,0.318 -4.032,0.953c-0.976,0.635 -1.464,1.452 -1.464,2.45l0,7.716c0,1.21 0.48,2.155 1.44,2.836c0.96,0.681 2.312,1.021 4.056,1.021c1.744,-0 3.088,-0.344 4.032,-1.032c0.944,-0.688 1.432,-1.496 1.464,-2.424l-2.976,-0c-0.352,-0 -0.656,-0.128 -0.912,-0.384c-0.256,-0.256 -0.384,-0.56 -0.384,-0.912l0,-5.328c0,-0.352 0.128,-0.656 0.384,-0.912c0.256,-0.256 0.56,-0.384 0.912,-0.384Z" style="fill:#fff;fill-rule:nonzero;"/><path d="M381.056,22.103l-0,5.709c-0,3.214 -0.8,5.898 -2.4,8.051c-1.6,2.152 -3.696,3.681 -6.288,4.586c-2.592,0.905 -5.648,1.357 -9.168,1.357c-3.52,-0 -6.576,-0.452 -9.168,-1.357c-2.592,-0.905 -4.688,-2.434 -6.288,-4.586c-1.6,-2.153 -2.4,-4.868 -2.4,-8.144l-0,-5.523c-0,-4.711 1.656,-8.236 4.968,-10.576c3.312,-2.34 7.608,-3.51 12.888,-3.51c5.28,-0 9.576,1.17 12.888,3.51c3.312,2.34 4.968,5.834 4.968,10.483Zm-22.752,-0.776l-0,7.262c-0,1.24 0.44,2.193 1.32,2.859c0.88,0.665 2.072,0.998 3.576,0.998c1.504,-0 2.696,-0.34 3.576,-1.021c0.88,-0.681 1.32,-1.642 1.32,-2.882l-0,-7.17c-0,-1.241 -0.44,-2.201 -1.32,-2.882c-0.88,-0.681 -2.072,-1.021 -3.576,-1.021c-1.504,-0 -2.696,0.333 -3.576,0.998c-0.88,0.666 -1.32,1.619 -1.32,2.859Z" style="fill:#fff;fill-rule:nonzero;"/></svg>