<?xml version="1.0" encoding="UTF-8" standalone="no"?><!DOCTYPE svg PUBLIC "-//W3C//DTD SVG 1.1//EN" "http://www.w3.org/Graphics/SVG/1.1/DTD/svg11.dtd"><svg width="100%" height="100%" viewBox="0 0 512 512" version="1.1" xmlns="http://www.w3.org/2000/svg" xmlns:xlink="http://www.w3.org/1999/xlink" xml:space="preserve" xmlns:serif="http://www.serif.com/" style="fill-rule:evenodd;clip-rule:evenodd;stroke-linejoin:round;stroke-miterlimit:2;"><path d="M512,76.8c0,-42.387 -34.413,-76.8 -76.8,-76.8l-358.4,0c-42.387,0 -76.8,34.413 -76.8,76.8l0,358.4c0,42.387 34.413,76.8 76.8,76.8l358.4,-0c42.387,-0 76.8,-34.413 76.8,-76.8l0,-358.4Z" style="fill:#fff;"/><path d="M512,76.8c0,-42.387 -34.413,-76.8 -76.8,-76.8l-358.4,0c-42.387,0 -76.8,34.413 -76.8,76.8l0,358.4c0,42.387 34.413,76.8 76.8,76.8l358.4,-0c42.387,-0 76.8,-34.413 76.8,-76.8l0,-358.4Zm-5,0l0,358.4c0,39.627 -32.173,71.8 -71.8,71.8l-358.4,-0c-39.627,-0 -71.8,-32.173 -71.8,-71.8l0,-358.4c0,-39.627 32.173,-71.8 71.8,-71.8l358.4,0c39.627,0 71.8,32.173 71.8,71.8Z"/><path d="M512,443.18l0,-315.18l-512,-0l0,315.18c0,37.983 34.413,68.82 76.8,68.82l358.4,-0c42.387,-0 76.8,-30.837 76.8,-68.82Z" style="fill:#fff;"/><clipPath id="_clip1"><path d="M512,443.18l0,-315.18l-512,-0l0,315.18c0,37.983 34.413,68.82 76.8,68.82l358.4,-0c42.387,-0 76.8,-30.837 76.8,-68.82Z"/></clipPath><g clip-path="url(#_clip1)"><path d="M512,87.937l-512,0l0,424.063l512,-0l0,-424.063Zm-1,1l0,422.063c0,-0 -510,-0 -510,-0c-0,0 0,-422.063 0,-422.063l510,0Z"/><path d="M128,384l-128,-0l0,128l128,-0l-0,-128Zm-1,1l-0,126c0,-0 -126,-0 -126,-0c0,0 0,-126 0,-126l126,-0Z"/><path d="M512,384l-128,-0l0,128l128,-0l0,-128Zm-1,1l0,126c0,-0 -126,-0 -126,-0c0,0 0,-126 0,-126l126,-0Z"/><rect x="128" y="384" width="128" height="128" style="fill:#7eff8c;"/><path d="M256,384l-128,-0l0,128l128,-0l0,-128Zm-1,1l0,126c0,-0 -126,-0 -126,-0c0,0 0,-126 0,-126l126,-0Z"/><path d="M384,384l-128,-0l0,128l128,-0l0,-128Zm-1,1l0,126c0,-0 -126,-0 -126,-0c0,0 0,-126 0,-126l126,-0Z"/><rect x="0" y="256" width="128" height="128" style="fill:#7eff8c;"/><path d="M128,256l-128,-0l0,128l128,-0l-0,-128Zm-1,1l-0,126c0,-0 -126,-0 -126,-0c0,0 0,-126 0,-126l126,-0Z"/><rect x="384" y="256" width="128" height="128" style="fill:#0cf;"/><path d="M512,256l-128,-0l0,128l128,-0l0,-128Zm-1,1l0,126c0,-0 -126,-0 -126,-0c0,0 0,-126 0,-126l126,-0Z"/><path d="M256,256l-128,-0l0,128l128,-0l0,-128Zm-1,1l0,126c0,-0 -126,-0 -126,-0c0,0 0,-126 0,-126l126,-0Z"/><path d="M384,256l-128,-0l0,128l128,-0l0,-128Zm-1,1l0,126c0,-0 -126,-0 -126,-0c0,0 0,-126 0,-126l126,-0Z"/><path d="M128,128l-128,-0l0,128l128,-0l-0,-128Zm-1,1l-0,126c0,-0 -126,-0 -126,-0c0,0 0,-126 0,-126l126,-0Z"/><path d="M512,128l-128,-0l0,128l128,-0l0,-128Zm-1,1l0,126c0,-0 -126,-0 -126,-0c0,0 0,-126 0,-126l126,-0Z"/><rect x="128" y="128" width="128" height="128" style="fill:#ff6e6f;"/><path d="M256,128l-128,-0l0,128l128,-0l0,-128Zm-1,1l0,126c0,-0 -126,-0 -126,-0c0,0 0,-126 0,-126l126,-0Z"/><rect x="256" y="128" width="128" height="128" style="fill:#7eff8c;"/><path d="M384,128l-128,-0l0,128l128,-0l0,-128Zm-1,1l0,126c0,-0 -126,-0 -126,-0c0,0 0,-126 0,-126l126,-0Z"/></g><path d="M512,443.18l0,-315.18l-512,-0l0,315.18c0,37.983 34.413,68.82 76.8,68.82l358.4,-0c42.387,-0 76.8,-30.837 76.8,-68.82Zm-5,-0c0,35.383 -32.315,63.82 -71.8,63.82l-358.4,-0c-39.485,-0 -71.8,-28.437 -71.8,-63.82l0,-310.18c0,-0 449.429,-0 502,-0c0,40.269 0,310.18 0,310.18Z"/><path d="M62.359,33.084l39.141,0c4.781,0 8.945,0.508 12.492,1.524c3.547,1.015 6.492,2.414 8.836,4.195c2.344,1.781 4.086,3.898 5.227,6.351c1.14,2.454 1.711,5.102 1.711,7.946c-0,4.656 -1.469,8.734 -4.407,12.234c3.375,2 5.891,4.594 7.547,7.781c1.657,3.188 2.485,6.813 2.485,10.875c-0,3.407 -0.571,6.485 -1.711,9.235c-1.141,2.75 -2.875,5.101 -5.203,7.054c-2.329,1.953 -5.266,3.453 -8.813,4.5c-3.547,1.047 -7.726,1.571 -12.539,1.571l-44.766,-0l0,-73.266Zm44.86,28.125c1.281,0 2.531,0.047 3.75,0.141c2.094,-2 3.14,-4.282 3.14,-6.844c0,-2.656 -1.039,-4.711 -3.117,-6.164c-2.078,-1.453 -5.117,-2.18 -9.117,-2.18l-24.656,0l-0,15.047l30,0Zm0.281,32.203c4,0 7.039,-0.859 9.117,-2.578c2.078,-1.719 3.117,-4.141 3.117,-7.266c0,-3.125 -1.039,-5.562 -3.117,-7.312c-2.078,-1.75 -5.117,-2.625 -9.117,-2.625l-30.281,-0l-0,19.781l30.281,0Z" style="fill-rule:nonzero;"/><rect x="148.563" y="33.084" width="14.953" height="73.266" style="fill-rule:nonzero;"/><path d="M182.359,33.084l14.86,0l45.656,23.906l0,-23.906l14.859,0l0,73.266l-14.859,-0l0,-33.61l-45.656,-23.765l-0,57.375l-14.86,-0l0,-73.266Z" style="fill-rule:nonzero;"/><path d="M273.438,69.037c-0,-5.156 0.968,-9.976 2.906,-14.461c1.937,-4.484 4.765,-8.383 8.484,-11.695c3.719,-3.313 8.289,-5.922 13.711,-7.828c5.422,-1.906 11.633,-2.86 18.633,-2.86c2.531,0 5.07,0.133 7.617,0.399c2.547,0.265 5.063,0.68 7.547,1.242c2.484,0.563 4.906,1.273 7.266,2.133c2.359,0.859 4.601,1.883 6.726,3.07l-6.844,11.25c-1.281,-0.75 -2.734,-1.429 -4.359,-2.039c-1.625,-0.609 -3.367,-1.125 -5.227,-1.547c-1.859,-0.422 -3.781,-0.742 -5.765,-0.961c-1.985,-0.218 -3.977,-0.328 -5.977,-0.328c-4.625,0 -8.75,0.586 -12.375,1.758c-3.625,1.172 -6.687,2.813 -9.187,4.922c-2.5,2.109 -4.407,4.633 -5.719,7.57c-1.313,2.938 -1.969,6.156 -1.969,9.656c0,3.625 0.688,6.954 2.063,9.985c1.375,3.031 3.328,5.64 5.859,7.828c2.531,2.187 5.594,3.898 9.188,5.133c3.593,1.234 7.609,1.851 12.046,1.851c3.532,0 6.766,-0.398 9.704,-1.195c2.937,-0.797 5.5,-1.93 7.687,-3.398c2.188,-1.469 3.969,-3.243 5.344,-5.321c1.375,-2.078 2.281,-4.414 2.719,-7.008l-25.594,0l-0,-12.234l38.953,0l-0,0.047l0.047,-0.047c0.781,3.75 1.023,7.399 0.726,10.945c-0.296,3.547 -1.109,6.891 -2.437,10.032c-1.328,3.14 -3.148,6.023 -5.461,8.648c-2.312,2.625 -5.078,4.883 -8.297,6.774c-3.219,1.89 -6.875,3.359 -10.969,4.406c-4.093,1.047 -8.578,1.57 -13.453,1.57c-6.812,0 -12.914,-1 -18.304,-3c-5.391,-2 -9.961,-4.734 -13.711,-8.203c-3.75,-3.469 -6.618,-7.531 -8.602,-12.188c-1.984,-4.656 -2.977,-9.625 -2.977,-14.906Z" style="fill-rule:nonzero;"/><path d="M370.141,69.506c-0,-5.531 1.015,-10.594 3.046,-15.188c2.032,-4.593 4.883,-8.539 8.555,-11.835c3.672,-3.297 8.078,-5.852 13.219,-7.665c5.141,-1.812 10.836,-2.718 17.086,-2.718c6.219,-0 11.906,0.906 17.062,2.718c5.157,1.813 9.571,4.368 13.243,7.665c3.671,3.296 6.523,7.242 8.554,11.835c2.032,4.594 3.047,9.657 3.047,15.188c0,5.562 -1.015,10.664 -3.047,15.305c-2.031,4.64 -4.883,8.632 -8.554,11.976c-3.672,3.344 -8.086,5.946 -13.243,7.805c-5.156,1.859 -10.843,2.789 -17.062,2.789c-6.25,-0 -11.945,-0.93 -17.086,-2.789c-5.141,-1.859 -9.547,-4.461 -13.219,-7.805c-3.672,-3.344 -6.523,-7.336 -8.555,-11.976c-2.031,-4.641 -3.046,-9.743 -3.046,-15.305Zm14.859,-0c0,3.781 0.68,7.187 2.039,10.219c1.359,3.031 3.25,5.617 5.672,7.758c2.422,2.14 5.281,3.789 8.578,4.945c3.297,1.156 6.883,1.734 10.758,1.734c3.875,0 7.461,-0.578 10.758,-1.734c3.297,-1.156 6.148,-2.805 8.554,-4.945c2.407,-2.141 4.297,-4.727 5.672,-7.758c1.375,-3.032 2.063,-6.438 2.063,-10.219c-0,-3.781 -0.688,-7.172 -2.063,-10.172c-1.375,-3 -3.265,-5.539 -5.672,-7.617c-2.406,-2.078 -5.257,-3.664 -8.554,-4.758c-3.297,-1.094 -6.883,-1.641 -10.758,-1.641c-3.875,0 -7.461,0.547 -10.758,1.641c-3.297,1.094 -6.156,2.68 -8.578,4.758c-2.422,2.078 -4.313,4.617 -5.672,7.617c-1.359,3 -2.039,6.391 -2.039,10.172Z" style="fill-rule:nonzero;"/></svg>