<?xml version="1.0" encoding="UTF-8" standalone="no"?><!DOCTYPE svg PUBLIC "-//W3C//DTD SVG 1.1//EN" "http://www.w3.org/Graphics/SVG/1.1/DTD/svg11.dtd"><svg width="100%" height="100%" viewBox="0 0 200 200" version="1.1" xmlns="http://www.w3.org/2000/svg" xmlns:xlink="http://www.w3.org/1999/xlink" xml:space="preserve" xmlns:serif="http://www.serif.com/" style="fill-rule:evenodd;clip-rule:evenodd;stroke-linejoin:round;stroke-miterlimit:2;"><path d="M200,20c0,-11.038 -8.962,-20 -20,-20l-160,0c-11.038,0 -20,8.962 -20,20l0,160c0,11.038 8.962,20 20,20l160,-0c11.038,-0 20,-8.962 20,-20l0,-160Z"/><path d="M200,20c0,-11.038 -8.962,-20 -20,-20l-160,0c-11.038,0 -20,8.962 -20,20l0,160c0,11.038 8.962,20 20,20l160,-0c11.038,-0 20,-8.962 20,-20l0,-160Zm-1.953,0l-0,160c-0,9.96 -8.087,18.047 -18.047,18.047c-0,-0 -160,-0 -160,-0c-9.96,-0 -18.047,-8.087 -18.047,-18.047l0,-160c0,-9.96 8.087,-18.047 18.047,-18.047l160,0c9.96,0 18.047,8.087 18.047,18.047Z"/><path d="M42.88,23.056c0,5.5 -3.525,8.25 -10.575,8.25l-15.45,0c-0.275,0 -0.512,-0.1 -0.712,-0.3c-0.2,-0.2 -0.3,-0.437 -0.3,-0.712l-0,-24.225c-0,-0.275 0.1,-0.513 0.3,-0.713c0.2,-0.2 0.437,-0.3 0.712,-0.3l15.075,0c3.55,0 6.169,0.644 7.856,1.931c1.688,1.288 2.532,3.232 2.532,5.832l-0,0.112c-0,1.2 -0.325,2.225 -0.975,3.075c-0.65,0.85 -1.325,1.388 -2.025,1.613c0.975,0.3 1.812,0.956 2.512,1.968c0.7,1.013 1.05,2.169 1.05,3.469Zm-17.287,-1.875l-0,3.675l5.437,0c0.575,0 1.006,-0.194 1.294,-0.581c0.287,-0.388 0.431,-0.819 0.431,-1.294l0,-0.037c0,-0.475 -0.156,-0.888 -0.469,-1.238c-0.312,-0.35 -0.731,-0.525 -1.256,-0.525l-5.437,0Zm6.168,-6.806c0.263,-0.363 0.394,-0.769 0.394,-1.219c0,-0.45 -0.131,-0.837 -0.394,-1.162c-0.262,-0.325 -0.643,-0.488 -1.143,-0.488l-5.025,0l-0,3.413l5.025,-0c0.5,-0 0.881,-0.182 1.143,-0.544Z" style="fill:#fff;fill-rule:nonzero;"/><path d="M76.105,12.744l-6.787,-0l-0,10.875l6.787,-0c0.275,-0 0.513,0.1 0.713,0.3c0.2,0.2 0.3,0.437 0.3,0.712l-0,5.663c-0,0.275 -0.1,0.512 -0.3,0.712c-0.2,0.2 -0.438,0.3 -0.713,0.3l-23.775,0c-0.275,0 -0.512,-0.1 -0.712,-0.3c-0.2,-0.2 -0.3,-0.437 -0.3,-0.712l-0,-5.663c-0,-0.275 0.1,-0.512 0.3,-0.712c0.2,-0.2 0.437,-0.3 0.712,-0.3l6.863,-0l-0,-10.875l-6.863,-0c-0.275,-0 -0.512,-0.1 -0.712,-0.3c-0.2,-0.2 -0.3,-0.438 -0.3,-0.713l-0,-5.662c-0,-0.275 0.1,-0.513 0.3,-0.713c0.2,-0.2 0.437,-0.3 0.712,-0.3l23.775,0c0.275,0 0.513,0.1 0.713,0.3c0.2,0.2 0.3,0.438 0.3,0.713l-0,5.662c-0,0.275 -0.1,0.513 -0.3,0.713c-0.2,0.2 -0.438,0.3 -0.713,0.3Z" style="fill:#fff;fill-rule:nonzero;"/><path d="M104.605,5.056l6.975,0c0.275,0 0.513,0.1 0.713,0.3c0.2,0.2 0.3,0.438 0.3,0.713l-0,24.225c-0,0.275 -0.1,0.512 -0.3,0.712c-0.2,0.2 -0.438,0.3 -0.713,0.3l-6.037,0c-0.6,0 -1.1,-0.262 -1.5,-0.787l-8.175,-10.425l-0,10.2c-0,0.275 -0.1,0.512 -0.3,0.712c-0.2,0.2 -0.438,0.3 -0.713,0.3l-6.975,0c-0.275,0 -0.512,-0.1 -0.712,-0.3c-0.2,-0.2 -0.3,-0.437 -0.3,-0.712l-0,-24.225c-0,-0.275 0.1,-0.513 0.3,-0.713c0.2,-0.2 0.437,-0.3 0.712,-0.3l6.075,0c0.6,0 1.088,0.25 1.463,0.75l8.175,11.288l-0,-11.025c-0,-0.275 0.1,-0.513 0.3,-0.713c0.2,-0.2 0.437,-0.3 0.712,-0.3Z" style="fill:#fff;fill-rule:nonzero;"/><path d="M138.093,15.144l10.875,-0c0.275,-0 0.512,0.1 0.712,0.3c0.2,0.2 0.3,0.437 0.3,0.712l0,3.975c0,3.8 -1.294,6.619 -3.881,8.456c-2.588,1.838 -6.006,2.757 -10.256,2.757c-4.25,-0 -7.669,-0.896 -10.257,-2.688c-2.587,-1.791 -3.881,-4.564 -3.881,-8.317l0,-4.315c0,-1.877 0.369,-3.534 1.106,-4.973c0.738,-1.438 1.769,-2.596 3.094,-3.473c2.6,-1.706 5.913,-2.559 9.938,-2.559c2,-0 3.831,0.222 5.493,0.666c1.663,0.444 2.988,0.996 3.975,1.657c0.988,0.66 1.832,1.374 2.532,2.143c1.225,1.344 1.837,2.533 1.837,3.566c0,0.216 -0.081,0.402 -0.244,0.558c-0.162,0.156 -0.356,0.234 -0.581,0.234l-8.475,-0c-0.5,-0 -0.862,-0.111 -1.087,-0.333c-0.775,-0.786 -1.832,-1.179 -3.169,-1.179c-1.338,0 -2.388,0.248 -3.15,0.745c-0.763,0.496 -1.144,1.134 -1.144,1.914l0,6.028c0,0.945 0.375,1.683 1.125,2.215c0.75,0.532 1.806,0.798 3.169,0.798c1.362,0 2.412,-0.269 3.15,-0.806c0.737,-0.538 1.119,-1.169 1.144,-1.894l-2.325,0c-0.275,0 -0.513,-0.1 -0.713,-0.3c-0.2,-0.2 -0.3,-0.437 -0.3,-0.712l0,-4.163c0,-0.275 0.1,-0.512 0.3,-0.712c0.2,-0.2 0.438,-0.3 0.713,-0.3Z" style="fill:#fff;fill-rule:nonzero;"/><path d="M185.043,15.951l-0,4.46c-0,2.511 -0.625,4.607 -1.875,6.289c-1.25,1.682 -2.888,2.876 -4.913,3.583c-2.025,0.707 -4.412,1.061 -7.162,1.061c-2.75,-0 -5.138,-0.354 -7.163,-1.061c-2.025,-0.707 -3.662,-1.901 -4.912,-3.583c-1.25,-1.682 -1.875,-3.802 -1.875,-6.361l-0,-4.315c-0,-3.681 1.293,-6.435 3.881,-8.263c2.587,-1.828 5.944,-2.742 10.069,-2.742c4.125,-0 7.481,0.914 10.068,2.742c2.588,1.828 3.882,4.558 3.882,8.19Zm-17.775,-0.606l-0,5.673c-0,0.969 0.343,1.713 1.031,2.233c0.687,0.52 1.619,0.78 2.794,0.78c1.175,0 2.106,-0.266 2.793,-0.798c0.688,-0.532 1.032,-1.282 1.032,-2.251l-0,-5.602c-0,-0.969 -0.344,-1.719 -1.032,-2.251c-0.687,-0.532 -1.618,-0.798 -2.793,-0.798c-1.175,0 -2.107,0.26 -2.794,0.78c-0.688,0.52 -1.031,1.264 -1.031,2.234Z" style="fill:#fff;fill-rule:nonzero;"/><path d="M71.196,50.322c0,-6.755 -5.484,-12.24 -12.24,-12.24l-24.479,0c-6.756,0 -12.24,5.485 -12.24,12.24l-0,24.48c-0,6.755 5.484,12.24 12.24,12.24l24.479,-0c6.756,-0 12.24,-5.485 12.24,-12.24l0,-24.48Z" style="fill:#fff;"/><path d="M71.196,50.322c0,-6.755 -5.484,-12.24 -12.24,-12.24l-24.479,0c-6.756,0 -12.24,5.485 -12.24,12.24l-0,24.48c-0,6.755 5.484,12.24 12.24,12.24l24.479,-0c6.756,-0 12.24,-5.485 12.24,-12.24l0,-24.48Zm-3.906,-0l0,24.48c0,4.599 -3.734,8.333 -8.334,8.333l-24.479,0c-4.6,0 -8.334,-3.734 -8.334,-8.333l-0,-24.48c-0,-4.6 3.734,-8.334 8.334,-8.334c-0,0 24.479,0 24.479,0c4.6,0 8.334,3.734 8.334,8.334Z" style="fill:#fff;"/><path d="M177.448,50.322c0,-6.755 -5.484,-12.24 -12.239,-12.24l-24.48,0c-6.756,0 -12.24,5.485 -12.24,12.24l-0,24.48c-0,6.755 5.484,12.24 12.24,12.24l24.48,-0c6.755,-0 12.239,-5.485 12.239,-12.24l0,-24.48Z" style="fill:#d3d3d3;"/><path d="M177.448,50.322c0,-6.755 -5.484,-12.24 -12.239,-12.24l-24.48,0c-6.756,0 -12.24,5.485 -12.24,12.24l-0,24.48c-0,6.755 5.484,12.24 12.24,12.24l24.48,-0c6.755,-0 12.239,-5.485 12.239,-12.24l0,-24.48Zm-3.906,-0l0,24.48c0,4.599 -3.734,8.333 -8.333,8.333l-24.48,0c-4.6,0 -8.334,-3.734 -8.334,-8.333l0,-24.48c0,-4.6 3.734,-8.334 8.334,-8.334c-0,0 24.48,0 24.48,0c4.599,0 8.333,3.734 8.333,8.334Z" style="fill:#d3d3d3;"/><path d="M124.313,50.322c0,-6.755 -5.484,-12.24 -12.24,-12.24l-24.479,0c-6.756,0 -12.24,5.485 -12.24,12.24l-0,24.48c-0,6.755 5.484,12.24 12.24,12.24l24.479,-0c6.756,-0 12.24,-5.485 12.24,-12.24l0,-24.48Z" style="fill:#fff;"/><path d="M124.313,50.322c0,-6.755 -5.484,-12.24 -12.24,-12.24l-24.479,0c-6.756,0 -12.24,5.485 -12.24,12.24l-0,24.48c-0,6.755 5.484,12.24 12.24,12.24l24.479,-0c6.756,-0 12.24,-5.485 12.24,-12.24l0,-24.48Zm-3.906,-0l0,24.48c0,4.599 -3.734,8.333 -8.334,8.333l-24.479,0c-4.6,0 -8.334,-3.734 -8.334,-8.333c-0,-0 -0,-24.48 -0,-24.48c-0,-4.6 3.734,-8.334 8.334,-8.334c-0,0 24.479,0 24.479,0c4.6,0 8.334,3.734 8.334,8.334Z" style="fill:#fff;"/><path d="M71.196,103.378c0,-6.755 -5.484,-12.24 -12.24,-12.24l-24.479,0c-6.756,0 -12.24,5.485 -12.24,12.24l-0,24.48c-0,6.755 5.484,12.24 12.24,12.24l24.479,-0c6.756,-0 12.24,-5.485 12.24,-12.24l0,-24.48Z" style="fill:#fff;"/><path d="M71.196,103.378c0,-6.755 -5.484,-12.24 -12.24,-12.24l-24.479,0c-6.756,0 -12.24,5.485 -12.24,12.24l-0,24.48c-0,6.755 5.484,12.24 12.24,12.24l24.479,-0c6.756,-0 12.24,-5.485 12.24,-12.24l0,-24.48Zm-3.906,0l0,24.48c0,4.6 -3.734,8.334 -8.334,8.334c0,-0 -24.479,-0 -24.479,-0c-4.6,-0 -8.334,-3.734 -8.334,-8.334l-0,-24.48c-0,-4.599 3.734,-8.333 8.334,-8.333c-0,-0 24.479,-0 24.479,-0c4.6,-0 8.334,3.734 8.334,8.333Z" style="fill:#fff;"/><path d="M177.448,103.378c0,-6.755 -5.484,-12.24 -12.239,-12.24l-24.48,0c-6.756,0 -12.24,5.485 -12.24,12.24l-0,24.48c-0,6.755 5.484,12.24 12.24,12.24l24.48,-0c6.755,-0 12.239,-5.485 12.239,-12.24l0,-24.48Z" style="fill:#fff;"/><path d="M177.448,103.378c0,-6.755 -5.484,-12.24 -12.239,-12.24l-24.48,0c-6.756,0 -12.24,5.485 -12.24,12.24l-0,24.48c-0,6.755 5.484,12.24 12.24,12.24l24.48,-0c6.755,-0 12.239,-5.485 12.239,-12.24l0,-24.48Zm-3.906,0l0,24.48c0,4.6 -3.734,8.334 -8.333,8.334c-0,-0 -24.48,-0 -24.48,-0c-4.6,-0 -8.334,-3.734 -8.334,-8.334l0,-24.48c0,-4.599 3.734,-8.333 8.334,-8.333c-0,-0 24.48,-0 24.48,-0c4.599,-0 8.333,3.734 8.333,8.333Z" style="fill:#fff;"/><path d="M124.313,103.378c0,-6.755 -5.484,-12.24 -12.24,-12.24l-24.479,0c-6.756,0 -12.24,5.485 -12.24,12.24l-0,24.48c-0,6.755 5.484,12.24 12.24,12.24l24.479,-0c6.756,-0 12.24,-5.485 12.24,-12.24l0,-24.48Z" style="fill:#fff;"/><path d="M124.313,103.378c0,-6.755 -5.484,-12.24 -12.24,-12.24l-24.479,0c-6.756,0 -12.24,5.485 -12.24,12.24l-0,24.48c-0,6.755 5.484,12.24 12.24,12.24l24.479,-0c6.756,-0 12.24,-5.485 12.24,-12.24l0,-24.48Zm-3.906,0l0,24.48c0,4.6 -3.734,8.334 -8.334,8.334c0,-0 -24.479,-0 -24.479,-0c-4.6,-0 -8.334,-3.734 -8.334,-8.334c-0,0 -0,-24.48 -0,-24.48c-0,-4.599 3.734,-8.333 8.334,-8.333c-0,-0 24.479,-0 24.479,-0c4.6,-0 8.334,3.734 8.334,8.333Z" style="fill:#fff;"/><path d="M71.196,156.398c0,-6.756 -5.484,-12.24 -12.24,-12.24l-24.479,-0c-6.756,-0 -12.24,5.484 -12.24,12.24l-0,24.479c-0,6.756 5.484,12.24 12.24,12.24l24.479,0c6.756,0 12.24,-5.484 12.24,-12.24l0,-24.479Z" style="fill:#fff;"/><path d="M71.196,156.398c0,-6.756 -5.484,-12.24 -12.24,-12.24l-24.479,-0c-6.756,-0 -12.24,5.484 -12.24,12.24l-0,24.479c-0,6.756 5.484,12.24 12.24,12.24l24.479,0c6.756,0 12.24,-5.484 12.24,-12.24l0,-24.479Zm-3.906,-0l0,24.479c0,4.6 -3.734,8.334 -8.334,8.334l-24.479,0c-4.6,0 -8.334,-3.734 -8.334,-8.334l-0,-24.479c-0,-4.6 3.734,-8.334 8.334,-8.334l24.479,-0c4.6,-0 8.334,3.734 8.334,8.334Z" style="fill:#fff;"/><path d="M177.448,156.398c0,-6.756 -5.484,-12.24 -12.239,-12.24l-24.48,-0c-6.756,-0 -12.24,5.484 -12.24,12.24l-0,24.479c-0,6.756 5.484,12.24 12.24,12.24l24.48,0c6.755,0 12.239,-5.484 12.239,-12.24l0,-24.479Z" style="fill:#fff;"/><path d="M177.448,156.398c0,-6.756 -5.484,-12.24 -12.239,-12.24l-24.48,-0c-6.756,-0 -12.24,5.484 -12.24,12.24l-0,24.479c-0,6.756 5.484,12.24 12.24,12.24l24.48,0c6.755,0 12.239,-5.484 12.239,-12.24l0,-24.479Zm-3.906,-0l0,24.479c0,4.6 -3.734,8.334 -8.333,8.334l-24.48,0c-4.6,0 -8.334,-3.734 -8.334,-8.334l0,-24.479c0,-4.6 3.734,-8.334 8.334,-8.334l24.48,-0c4.599,-0 8.333,3.734 8.333,8.334Z" style="fill:#fff;"/><path d="M124.313,156.398c0,-6.756 -5.484,-12.24 -12.24,-12.24l-24.479,-0c-6.756,-0 -12.24,5.484 -12.24,12.24l-0,24.479c-0,6.756 5.484,12.24 12.24,12.24l24.479,0c6.756,0 12.24,-5.484 12.24,-12.24l0,-24.479Z" style="fill:#fff;"/><path d="M124.313,156.398c0,-6.756 -5.484,-12.24 -12.24,-12.24l-24.479,-0c-6.756,-0 -12.24,5.484 -12.24,12.24l-0,24.479c-0,6.756 5.484,12.24 12.24,12.24l24.479,0c6.756,0 12.24,-5.484 12.24,-12.24l0,-24.479Zm-3.906,-0l0,24.479c0,4.6 -3.734,8.334 -8.334,8.334l-24.479,0c-4.6,0 -8.334,-3.734 -8.334,-8.334c-0,0 -0,-24.479 -0,-24.479c-0,-4.6 3.734,-8.334 8.334,-8.334l24.479,-0c4.6,-0 8.334,3.734 8.334,8.334Z" style="fill:#fff;"/><circle cx="46.717" cy="62.562" r="18.968" style="fill:#e5275d;fill-opacity:0.76;"/><circle cx="152.969" cy="168.637" r="18.968" style="fill:#e5275d;fill-opacity:0.76;"/></svg>