<?xml version="1.0" encoding="UTF-8" standalone="no"?><!DOCTYPE svg PUBLIC "-//W3C//DTD SVG 1.1//EN" "http://www.w3.org/Graphics/SVG/1.1/DTD/svg11.dtd"><svg width="100%" height="100%" viewBox="0 0 512 512" version="1.1" xmlns="http://www.w3.org/2000/svg" xmlns:xlink="http://www.w3.org/1999/xlink" xml:space="preserve" xmlns:serif="http://www.serif.com/" style="fill-rule:evenodd;clip-rule:evenodd;stroke-linejoin:round;stroke-miterlimit:2;"><path d="M512,51.2c0,-28.258 -22.942,-51.2 -51.2,-51.2l-409.6,0c-28.258,0 -51.2,22.942 -51.2,51.2l0,409.6c0,28.258 22.942,51.2 51.2,51.2l409.6,-0c28.258,-0 51.2,-22.942 51.2,-51.2l0,-409.6Z"/><path d="M512,51.2c0,-28.258 -22.942,-51.2 -51.2,-51.2l-409.6,0c-28.258,0 -51.2,22.942 -51.2,51.2l0,409.6c0,28.258 22.942,51.2 51.2,51.2l409.6,-0c28.258,-0 51.2,-22.942 51.2,-51.2l0,-409.6Zm-5,0l0,409.6c0,25.498 -20.702,46.2 -46.2,46.2l-409.6,-0c-25.498,-0 -46.2,-20.702 -46.2,-46.2l0,-409.6c0,-25.498 20.702,-46.2 46.2,-46.2l409.6,0c25.498,0 46.2,20.702 46.2,46.2Z"/><path d="M109.773,59.024c-0,14.08 -9.024,21.12 -27.072,21.12l-39.552,-0c-0.704,-0 -1.312,-0.256 -1.824,-0.768c-0.512,-0.512 -0.768,-1.12 -0.768,-1.824l-0,-62.016c-0,-0.704 0.256,-1.312 0.768,-1.824c0.512,-0.512 1.12,-0.768 1.824,-0.768l38.592,-0c9.088,-0 15.792,1.648 20.112,4.944c4.32,3.296 6.48,8.272 6.48,14.928l-0,0.288c-0,3.072 -0.832,5.696 -2.496,7.872c-1.664,2.176 -3.392,3.552 -5.184,4.128c2.496,0.768 4.64,2.448 6.432,5.04c1.792,2.592 2.688,5.552 2.688,8.88Zm-44.256,-4.8l-0,9.408l13.92,-0c1.472,-0 2.576,-0.496 3.312,-1.488c0.736,-0.992 1.104,-2.096 1.104,-3.312l-0,-0.096c-0,-1.216 -0.4,-2.272 -1.2,-3.168c-0.8,-0.896 -1.872,-1.344 -3.216,-1.344l-13.92,-0Zm15.792,-17.424c0.672,-0.928 1.008,-1.968 1.008,-3.12c-0,-1.152 -0.336,-2.144 -1.008,-2.976c-0.672,-0.832 -1.648,-1.248 -2.928,-1.248l-12.864,-0l-0,8.736l12.864,-0c1.28,-0 2.256,-0.464 2.928,-1.392Z" style="fill:#fff;fill-rule:nonzero;"/><path d="M194.829,32.624l-17.376,-0l-0,27.84l17.376,-0c0.704,-0 1.312,0.256 1.824,0.768c0.512,0.512 0.768,1.12 0.768,1.824l-0,14.496c-0,0.704 -0.256,1.312 -0.768,1.824c-0.512,0.512 -1.12,0.768 -1.824,0.768l-60.864,-0c-0.704,-0 -1.312,-0.256 -1.824,-0.768c-0.512,-0.512 -0.768,-1.12 -0.768,-1.824l-0,-14.496c-0,-0.704 0.256,-1.312 0.768,-1.824c0.512,-0.512 1.12,-0.768 1.824,-0.768l17.568,-0l-0,-27.84l-17.568,-0c-0.704,-0 -1.312,-0.256 -1.824,-0.768c-0.512,-0.512 -0.768,-1.12 -0.768,-1.824l-0,-14.496c-0,-0.704 0.256,-1.312 0.768,-1.824c0.512,-0.512 1.12,-0.768 1.824,-0.768l60.864,-0c0.704,-0 1.312,0.256 1.824,0.768c0.512,0.512 0.768,1.12 0.768,1.824l-0,14.496c-0,0.704 -0.256,1.312 -0.768,1.824c-0.512,0.512 -1.12,0.768 -1.824,0.768Z" style="fill:#fff;fill-rule:nonzero;"/><path d="M267.789,12.944l17.856,-0c0.704,-0 1.312,0.256 1.824,0.768c0.512,0.512 0.768,1.12 0.768,1.824l-0,62.016c-0,0.704 -0.256,1.312 -0.768,1.824c-0.512,0.512 -1.12,0.768 -1.824,0.768l-15.456,-0c-1.536,-0 -2.816,-0.672 -3.84,-2.016l-20.928,-26.688l-0,26.112c-0,0.704 -0.256,1.312 -0.768,1.824c-0.512,0.512 -1.12,0.768 -1.824,0.768l-17.856,-0c-0.704,-0 -1.312,-0.256 -1.824,-0.768c-0.512,-0.512 -0.768,-1.12 -0.768,-1.824l-0,-62.016c-0,-0.704 0.256,-1.312 0.768,-1.824c0.512,-0.512 1.12,-0.768 1.824,-0.768l15.552,-0c1.536,-0 2.784,0.64 3.744,1.92l20.928,28.896l-0,-28.224c-0,-0.704 0.256,-1.312 0.768,-1.824c0.512,-0.512 1.12,-0.768 1.824,-0.768Z" style="fill:#fff;fill-rule:nonzero;"/><path d="M353.517,38.768l27.84,-0c0.704,-0 1.312,0.256 1.824,0.768c0.512,0.512 0.768,1.12 0.768,1.824l-0,10.176c-0,9.728 -3.312,16.944 -9.936,21.648c-6.624,4.704 -15.376,7.056 -26.256,7.056c-10.88,-0 -19.632,-2.294 -26.256,-6.88c-6.624,-4.587 -9.936,-11.684 -9.936,-21.293l-0,-11.046c-0,-4.804 0.944,-9.047 2.832,-12.729c1.888,-3.682 4.528,-6.646 7.92,-8.892c6.656,-4.368 15.136,-6.552 25.44,-6.552c5.12,-0 9.808,0.568 14.064,1.705c4.256,1.137 7.648,2.551 10.176,4.241c2.528,1.691 4.688,3.52 6.48,5.487c3.136,3.442 4.704,6.485 4.704,9.129c-0,0.553 -0.208,1.029 -0.624,1.428c-0.416,0.4 -0.912,0.6 -1.488,0.6l-21.696,-0c-1.28,-0 -2.208,-0.284 -2.784,-0.852c-1.984,-2.012 -4.688,-3.018 -8.112,-3.018c-3.424,-0 -6.112,0.635 -8.064,1.905c-1.952,1.271 -2.928,2.905 -2.928,4.902l-0,15.43c-0,2.42 0.96,4.311 2.88,5.672c1.92,1.362 4.624,2.043 8.112,2.043c3.488,-0 6.176,-0.688 8.064,-2.064c1.888,-1.376 2.864,-2.992 2.928,-4.848l-5.952,-0c-0.704,-0 -1.312,-0.256 -1.824,-0.768c-0.512,-0.512 -0.768,-1.12 -0.768,-1.824l-0,-10.656c-0,-0.704 0.256,-1.312 0.768,-1.824c0.512,-0.512 1.12,-0.768 1.824,-0.768Z" style="fill:#fff;fill-rule:nonzero;"/><path d="M473.709,40.835l-0,11.418c-0,6.428 -1.6,11.794 -4.8,16.1c-3.2,4.305 -7.392,7.363 -12.576,9.172c-5.184,1.81 -11.296,2.715 -18.336,2.715c-7.04,-0 -13.152,-0.905 -18.336,-2.715c-5.184,-1.809 -9.376,-4.867 -12.576,-9.172c-3.2,-4.306 -4.8,-9.734 -4.8,-16.286l-0,-11.046c-0,-9.422 3.312,-16.473 9.936,-21.153c6.624,-4.68 15.216,-7.02 25.776,-7.02c10.56,-0 19.152,2.34 25.776,7.02c6.624,4.68 9.936,11.669 9.936,20.967Zm-45.504,-1.553l-0,14.523c-0,2.481 0.88,4.387 2.64,5.718c1.76,1.331 4.144,1.997 7.152,1.997c3.008,-0 5.392,-0.681 7.152,-2.043c1.76,-1.361 2.64,-3.282 2.64,-5.763l-0,-14.34c-0,-2.481 -0.88,-4.403 -2.64,-5.764c-1.76,-1.362 -4.144,-2.042 -7.152,-2.042c-3.008,-0 -5.392,0.665 -7.152,1.996c-1.76,1.331 -2.64,3.237 -2.64,5.718Z" style="fill:#fff;fill-rule:nonzero;"/><path d="M182.263,128.824c-0,-17.294 -14.041,-31.334 -31.335,-31.334l-62.668,-0c-17.294,-0 -31.334,14.04 -31.334,31.334l-0,62.669c-0,17.293 14.04,31.334 31.334,31.334l62.668,-0c17.294,-0 31.335,-14.041 31.335,-31.334l-0,-62.669Z" style="fill:#fff;"/><path d="M182.263,128.824c-0,-17.294 -14.041,-31.334 -31.335,-31.334l-62.668,-0c-17.294,-0 -31.334,14.04 -31.334,31.334l-0,62.669c-0,17.293 14.04,31.334 31.334,31.334l62.668,-0c17.294,-0 31.335,-14.041 31.335,-31.334l-0,-62.669Zm-10,0l-0,62.669c-0,11.774 -9.56,21.334 -21.335,21.334l-62.668,-0c-11.775,-0 -21.334,-9.56 -21.334,-21.334l-0,-62.669c-0,-11.774 9.559,-21.334 21.334,-21.334c0,-0 62.668,-0 62.668,-0c11.775,-0 21.335,9.56 21.335,21.334Z" style="fill:#fff;"/><path d="M454.268,128.824c-0,-17.294 -14.04,-31.334 -31.334,-31.334l-62.669,-0c-17.293,-0 -31.334,14.04 -31.334,31.334l0,62.669c0,17.293 14.041,31.334 31.334,31.334l62.669,-0c17.294,-0 31.334,-14.041 31.334,-31.334l-0,-62.669Z" style="fill:#d3d3d3;"/><path d="M454.268,128.824c-0,-17.294 -14.04,-31.334 -31.334,-31.334l-62.669,-0c-17.293,-0 -31.334,14.04 -31.334,31.334l0,62.669c0,17.293 14.041,31.334 31.334,31.334l62.669,-0c17.294,-0 31.334,-14.041 31.334,-31.334l-0,-62.669Zm-10,0l-0,62.669c-0,11.774 -9.56,21.334 -21.334,21.334l-62.669,-0c-11.774,-0 -21.334,-9.56 -21.334,-21.334l0,-62.669c0,-11.774 9.56,-21.334 21.334,-21.334c0,-0 62.669,-0 62.669,-0c11.774,-0 21.334,9.56 21.334,21.334Z" style="fill:#d3d3d3;"/><path d="M318.242,128.824c0,-17.294 -14.04,-31.334 -31.334,-31.334l-62.668,-0c-17.294,-0 -31.335,14.04 -31.335,31.334l0,62.669c0,17.293 14.041,31.334 31.335,31.334l62.668,-0c17.294,-0 31.334,-14.041 31.334,-31.334l0,-62.669Z" style="fill:#fff;"/><path d="M318.242,128.824c0,-17.294 -14.04,-31.334 -31.334,-31.334l-62.668,-0c-17.294,-0 -31.335,14.04 -31.335,31.334l0,62.669c0,17.293 14.041,31.334 31.335,31.334l62.668,-0c17.294,-0 31.334,-14.041 31.334,-31.334l0,-62.669Zm-10,0l0,62.669c0,11.774 -9.559,21.334 -21.334,21.334l-62.668,-0c-11.775,-0 -21.335,-9.56 -21.335,-21.334c0,-0 0,-62.669 0,-62.669c0,-11.774 9.56,-21.334 21.335,-21.334c-0,-0 62.668,-0 62.668,-0c11.775,-0 21.334,9.56 21.334,21.334Z" style="fill:#fff;"/><path d="M182.263,264.648c-0,-17.294 -14.041,-31.334 -31.335,-31.334l-62.668,0c-17.294,0 -31.334,14.04 -31.334,31.334l-0,62.669c-0,17.293 14.04,31.334 31.334,31.334l62.668,-0c17.294,-0 31.335,-14.041 31.335,-31.334l-0,-62.669Z" style="fill:#fff;"/><path d="M182.263,264.648c-0,-17.294 -14.041,-31.334 -31.335,-31.334l-62.668,0c-17.294,0 -31.334,14.04 -31.334,31.334l-0,62.669c-0,17.293 14.04,31.334 31.334,31.334l62.668,-0c17.294,-0 31.335,-14.041 31.335,-31.334l-0,-62.669Zm-10,0l-0,62.669c-0,11.774 -9.56,21.334 -21.335,21.334l-62.668,-0c-11.775,-0 -21.334,-9.56 -21.334,-21.334l-0,-62.669c-0,-11.774 9.559,-21.334 21.334,-21.334c0,0 62.668,0 62.668,0c11.775,0 21.335,9.56 21.335,21.334Z" style="fill:#fff;"/><path d="M454.268,264.648c-0,-17.294 -14.04,-31.334 -31.334,-31.334l-62.669,0c-17.293,0 -31.334,14.04 -31.334,31.334l0,62.669c0,17.293 14.041,31.334 31.334,31.334l62.669,-0c17.294,-0 31.334,-14.041 31.334,-31.334l-0,-62.669Z" style="fill:#fff;"/><path d="M454.268,264.648c-0,-17.294 -14.04,-31.334 -31.334,-31.334l-62.669,0c-17.293,0 -31.334,14.04 -31.334,31.334l0,62.669c0,17.293 14.041,31.334 31.334,31.334l62.669,-0c17.294,-0 31.334,-14.041 31.334,-31.334l-0,-62.669Zm-10,0l-0,62.669c-0,11.774 -9.56,21.334 -21.334,21.334l-62.669,-0c-11.774,-0 -21.334,-9.56 -21.334,-21.334l0,-62.669c0,-11.774 9.56,-21.334 21.334,-21.334c0,0 62.669,0 62.669,0c11.774,0 21.334,9.56 21.334,21.334Z" style="fill:#fff;"/><path d="M318.242,264.648c0,-17.294 -14.04,-31.334 -31.334,-31.334l-62.668,0c-17.294,0 -31.335,14.04 -31.335,31.334l0,62.669c0,17.293 14.041,31.334 31.335,31.334l62.668,-0c17.294,-0 31.334,-14.041 31.334,-31.334l0,-62.669Z" style="fill:#fff;"/><path d="M318.242,264.648c0,-17.294 -14.04,-31.334 -31.334,-31.334l-62.668,0c-17.294,0 -31.335,14.04 -31.335,31.334l0,62.669c0,17.293 14.041,31.334 31.335,31.334l62.668,-0c17.294,-0 31.334,-14.041 31.334,-31.334l0,-62.669Zm-10,0l0,62.669c0,11.774 -9.559,21.334 -21.334,21.334l-62.668,-0c-11.775,-0 -21.335,-9.56 -21.335,-21.334c0,-0 0,-62.669 0,-62.669c0,-11.774 9.56,-21.334 21.335,-21.334c-0,0 62.668,0 62.668,0c11.775,0 21.334,9.56 21.334,21.334Z" style="fill:#fff;"/><path d="M182.263,400.378c-0,-17.294 -14.041,-31.334 -31.335,-31.334l-62.668,-0c-17.294,-0 -31.334,14.04 -31.334,31.334l-0,62.668c-0,17.294 14.04,31.334 31.334,31.334l62.668,0c17.294,0 31.335,-14.04 31.335,-31.334l-0,-62.668Z" style="fill:#fff;"/><path d="M182.263,400.378c-0,-17.294 -14.041,-31.334 -31.335,-31.334l-62.668,-0c-17.294,-0 -31.334,14.04 -31.334,31.334l-0,62.668c-0,17.294 14.04,31.334 31.334,31.334l62.668,0c17.294,0 31.335,-14.04 31.335,-31.334l-0,-62.668Zm-10,-0l-0,62.668c-0,11.775 -9.56,21.334 -21.335,21.334l-62.668,0c-11.775,0 -21.334,-9.559 -21.334,-21.334l-0,-62.668c-0,-11.775 9.559,-21.334 21.334,-21.334l62.668,-0c11.775,-0 21.335,9.559 21.335,21.334Z" style="fill:#fff;"/><path d="M454.268,400.378c-0,-17.294 -14.04,-31.334 -31.334,-31.334l-62.669,-0c-17.293,-0 -31.334,14.04 -31.334,31.334l0,62.668c0,17.294 14.041,31.334 31.334,31.334l62.669,0c17.294,0 31.334,-14.04 31.334,-31.334l-0,-62.668Z" style="fill:#fff;"/><path d="M454.268,400.378c-0,-17.294 -14.04,-31.334 -31.334,-31.334l-62.669,-0c-17.293,-0 -31.334,14.04 -31.334,31.334l0,62.668c0,17.294 14.041,31.334 31.334,31.334l62.669,0c17.294,0 31.334,-14.04 31.334,-31.334l-0,-62.668Zm-10,-0l-0,62.668c-0,11.775 -9.56,21.334 -21.334,21.334l-62.669,0c-11.774,0 -21.334,-9.559 -21.334,-21.334l0,-62.668c0,-11.775 9.56,-21.334 21.334,-21.334l62.669,-0c11.774,-0 21.334,9.559 21.334,21.334Z" style="fill:#fff;"/><path d="M318.242,400.378c0,-17.294 -14.04,-31.334 -31.334,-31.334l-62.668,-0c-17.294,-0 -31.335,14.04 -31.335,31.334l0,62.668c0,17.294 14.041,31.334 31.335,31.334l62.668,0c17.294,0 31.334,-14.04 31.334,-31.334l0,-62.668Z" style="fill:#fff;"/><path d="M318.242,400.378c0,-17.294 -14.04,-31.334 -31.334,-31.334l-62.668,-0c-17.294,-0 -31.335,14.04 -31.335,31.334l0,62.668c0,17.294 14.041,31.334 31.335,31.334l62.668,0c17.294,0 31.334,-14.04 31.334,-31.334l0,-62.668Zm-10,-0l0,62.668c0,11.775 -9.559,21.334 -21.334,21.334l-62.668,0c-11.775,0 -21.335,-9.559 -21.335,-21.334c0,0 0,-62.668 0,-62.668c0,-11.775 9.56,-21.334 21.335,-21.334l62.668,-0c11.775,-0 21.334,9.559 21.334,21.334Z" style="fill:#fff;"/><circle cx="130.704" cy="166.268" r="48.559" style="fill:#e5275d;fill-opacity:0.76;"/><circle cx="379.633" cy="419.209" r="48.559" style="fill:#e5275d;fill-opacity:0.76;"/></svg>