<?xml version="1.0" encoding="UTF-8" standalone="no"?><!DOCTYPE svg PUBLIC "-//W3C//DTD SVG 1.1//EN" "http://www.w3.org/Graphics/SVG/1.1/DTD/svg11.dtd"><svg width="100%" height="100%" viewBox="0 0 2134 2134" version="1.1" xmlns="http://www.w3.org/2000/svg" xmlns:xlink="http://www.w3.org/1999/xlink" xml:space="preserve" xmlns:serif="http://www.serif.com/" style="fill-rule:evenodd;clip-rule:evenodd;stroke-linejoin:round;stroke-miterlimit:2;"><path d="M2133.33,213.333c0,-117.742 -95.591,-213.333 -213.333,-213.333l-1706.67,0c-117.742,0 -213.333,95.591 -213.333,213.333l0,1706.67c0,117.742 95.591,213.333 213.333,213.333l1706.67,0c117.742,0 213.333,-95.591 213.333,-213.333l0,-1706.67Z"/><path d="M2133.33,213.333c0,-117.742 -95.591,-213.333 -213.333,-213.333l-1706.67,0c-117.742,0 -213.333,95.591 -213.333,213.333l0,1706.67c0,117.742 95.591,213.333 213.333,213.333l1706.67,0c117.742,0 213.333,-95.591 213.333,-213.333l0,-1706.67Zm-20.833,0l0,1706.67c0,106.244 -86.256,192.5 -192.5,192.5l-1706.67,-0c-106.243,-0 -192.5,-86.256 -192.5,-192.5l0,-1706.67c0,-106.243 86.257,-192.5 192.5,-192.5l1706.67,0c106.244,0 192.5,86.257 192.5,192.5Z"/><rect x="177.438" y="565" width="584.12" height="456.667" style="fill:#fee194;"/><rect x="765.724" y="1484.58" width="602.917" height="456.667" style="fill:#fee194;"/><rect x="1371.78" y="565" width="584.12" height="456.667" style="fill:#fee194;"/><rect x="765.105" y="565" width="603.124" height="456.667" style="fill:#fdfbf7;"/><rect x="765.105" y="1024.58" width="603.124" height="456.608" style="fill:#fae7b0;"/><rect x="1371.78" y="1024.58" width="584.12" height="456.608" style="fill:#fdfbf7;"/><rect x="177.438" y="1024.74" width="584.12" height="456.608" style="fill:#d4d4d4;"/><rect x="177.438" y="1484.58" width="584.12" height="456.608" style="fill:#fdfbf7;"/><rect x="1371.67" y="1484.58" width="584.12" height="456.608" style="fill:#d4d4d4;"/><path id="Bingo" d="M184.19,143.728l178.375,0c21.79,0 40.767,2.314 56.931,6.943c16.164,4.628 29.586,11.001 40.268,19.119c10.681,8.118 18.62,17.766 23.819,28.946c5.198,11.18 7.797,23.249 7.797,36.209c-0,21.22 -6.694,39.805 -20.081,55.756c15.381,9.114 26.846,20.935 34.394,35.461c7.548,14.527 11.322,31.047 11.322,49.561c-0,15.523 -2.6,29.551 -7.798,42.083c-5.198,12.533 -13.102,23.25 -23.712,32.151c-10.61,8.901 -23.997,15.737 -40.161,20.508c-16.164,4.77 -35.212,7.156 -57.144,7.156l-204.01,-0l-0,-333.893Zm204.437,128.174c5.839,-0 11.536,0.214 17.09,0.641c9.542,-9.115 14.313,-19.511 14.313,-31.189c-0,-12.106 -4.736,-21.469 -14.206,-28.092c-9.471,-6.622 -23.321,-9.933 -41.55,-9.933l-112.366,-0l0,68.573l136.719,-0Zm1.282,146.759c18.229,-0 32.079,-3.917 41.55,-11.749c9.47,-7.833 14.205,-18.87 14.205,-33.112c0,-14.241 -4.735,-25.35 -14.205,-33.325c-9.471,-7.975 -23.321,-11.963 -41.55,-11.963l-138.001,-0l0,90.149l138.001,-0Z" style="fill:#fff;fill-rule:nonzero;"/><rect x="577.043" y="143.728" width="68.146" height="333.893" style="fill:#fff;fill-rule:nonzero;"/><path d="M731.065,143.728l67.718,0l208.069,108.948l0,-108.948l67.719,0l-0,333.893l-67.719,-0l0,-153.168l-208.069,-108.307l0,261.475l-67.718,-0l-0,-333.893Z" style="fill:#fff;fill-rule:nonzero;"/><path d="M1146.13,307.577c0,-23.499 4.415,-45.466 13.245,-65.903c8.83,-20.436 21.718,-38.203 38.666,-53.299c16.947,-15.096 37.776,-26.987 62.485,-35.675c24.709,-8.687 53.014,-13.031 84.915,-13.031c11.535,0 23.107,0.605 34.713,1.816c11.607,1.211 23.072,3.098 34.394,5.661c11.322,2.564 22.359,5.803 33.111,9.72c10.753,3.916 20.971,8.58 30.655,13.992l-31.189,51.27c-5.839,-3.418 -12.461,-6.516 -19.867,-9.293c-7.405,-2.777 -15.345,-5.127 -23.819,-7.049c-8.473,-1.923 -17.232,-3.383 -26.275,-4.38c-9.044,-0.997 -18.123,-1.495 -27.237,-1.495c-21.078,-0 -39.876,2.67 -56.397,8.011c-16.52,5.34 -30.477,12.817 -41.87,22.43c-11.393,9.613 -20.08,21.113 -26.062,34.5c-5.981,13.387 -8.972,28.056 -8.972,44.007c0,16.52 3.133,31.687 9.399,45.501c6.267,13.815 15.168,25.706 26.703,35.675c11.536,9.97 25.493,17.767 41.87,23.392c16.378,5.626 34.679,8.438 54.902,8.438c16.093,0 30.833,-1.816 44.22,-5.447c13.387,-3.632 25.065,-8.794 35.034,-15.488c9.969,-6.693 18.086,-14.775 24.353,-24.246c6.266,-9.471 10.396,-20.116 12.39,-31.937l-116.638,0l-0,-55.755l177.52,-0l0,0.213l0.214,-0.213c3.56,17.09 4.664,33.717 3.311,49.881c-1.353,16.164 -5.055,31.402 -11.108,45.715c-6.053,14.313 -14.349,27.451 -24.887,39.413c-10.539,11.963 -23.143,22.253 -37.812,30.869c-14.668,8.616 -31.331,15.31 -49.987,20.081c-18.657,4.771 -39.093,7.156 -61.31,7.156c-31.047,-0 -58.853,-4.557 -83.42,-13.672c-24.567,-9.114 -45.395,-21.576 -62.485,-37.384c-17.09,-15.808 -30.156,-34.322 -39.199,-55.542c-9.044,-21.22 -13.566,-43.864 -13.566,-67.932Z" style="fill:#fff;fill-rule:nonzero;"/><path d="M1586.84,309.713c-0,-25.207 4.628,-48.279 13.885,-69.214c9.257,-20.935 22.253,-38.915 38.986,-53.94c16.734,-15.024 36.815,-26.667 60.242,-34.927c23.428,-8.26 49.383,-12.39 77.866,-12.39c28.34,-0 54.26,4.13 77.759,12.39c23.498,8.26 43.614,19.903 60.348,34.927c16.734,15.025 29.729,33.005 38.986,53.94c9.257,20.935 13.886,44.007 13.886,69.214c-0,25.35 -4.629,48.599 -13.886,69.748c-9.257,21.149 -22.252,39.342 -38.986,54.581c-16.734,15.238 -36.85,27.094 -60.348,35.568c-23.499,8.474 -49.419,12.711 -77.759,12.711c-28.483,-0 -54.438,-4.237 -77.866,-12.711c-23.427,-8.474 -43.508,-20.33 -60.242,-35.568c-16.733,-15.239 -29.729,-33.432 -38.986,-54.581c-9.257,-21.149 -13.885,-44.398 -13.885,-69.748Zm67.718,0c0,17.232 3.098,32.756 9.293,46.57c6.195,13.814 14.811,25.599 25.848,35.355c11.037,9.755 24.068,17.267 39.093,22.537c15.025,5.269 31.367,7.904 49.027,7.904c17.659,-0 34.001,-2.635 49.026,-7.904c15.025,-5.27 28.021,-12.782 38.986,-22.537c10.966,-9.756 19.583,-21.541 25.849,-35.355c6.266,-13.814 9.399,-29.338 9.399,-46.57c0,-17.232 -3.133,-32.684 -9.399,-46.356c-6.266,-13.672 -14.883,-25.243 -25.849,-34.714c-10.965,-9.47 -23.961,-16.698 -38.986,-21.683c-15.025,-4.984 -31.367,-7.476 -49.026,-7.476c-17.66,-0 -34.002,2.492 -49.027,7.476c-15.025,4.985 -28.056,12.213 -39.093,21.683c-11.037,9.471 -19.653,21.042 -25.848,34.714c-6.195,13.672 -9.293,29.124 -9.293,46.356Z" style="fill:#fff;fill-rule:nonzero;"/><path d=""/></svg>